<?xml version="1.0" encoding="UTF-8" standalone="no"?>
<!-- Created with Inkscape (http://www.inkscape.org/) -->

<svg
   width="512"
   height="512"
   viewBox="0 0 512 512"
   version="1.1"
   id="svg5"
   inkscape:version="1.2.1 (9c6d41e410, 2022-07-14)"
   sodipodi:docname="ToolCase.svg"
   inkscape:export-filename="ToolCase.png"
   inkscape:export-xdpi="96"
   inkscape:export-ydpi="96"
   xmlns:inkscape="http://www.inkscape.org/namespaces/inkscape"
   xmlns:sodipodi="http://sodipodi.sourceforge.net/DTD/sodipodi-0.dtd"
   xmlns="http://www.w3.org/2000/svg"
   xmlns:svg="http://www.w3.org/2000/svg">
  <sodipodi:namedview
     id="namedview7"
     pagecolor="#ffffff"
     bordercolor="#999999"
     borderopacity="1"
     inkscape:showpageshadow="0"
     inkscape:pageopacity="0"
     inkscape:pagecheckerboard="0"
     inkscape:deskcolor="#d1d1d1"
     inkscape:document-units="px"
     showgrid="false"
     inkscape:zoom="0.9735219"
     inkscape:cx="95.529438"
     inkscape:cy="150.99814"
     inkscape:window-width="1920"
     inkscape:window-height="1009"
     inkscape:window-x="-8"
     inkscape:window-y="-8"
     inkscape:window-maximized="1"
     inkscape:current-layer="layer1" />
  <defs
     id="defs2" />
  <g
     inkscape:label="Laag 1"
     inkscape:groupmode="layer"
     id="layer1">
    <path
       id="rect788"
       style="fill:#000000;stroke-width:18.9489;stroke-linecap:round;stroke-linejoin:round;paint-order:stroke fill markers;stop-color:#000000"
       d="M 116.68945 244.08008 L 109.01172 251.75781 L 109.01172 263.70117 C 109.01172 267.9547 112.43597 271.37891 116.68945 271.37891 L 125.99219 271.37891 L 125.99219 338.2168 C 125.99219 351.79252 136.92229 362.72266 150.49805 362.72266 L 361.50195 362.72266 C 375.07771 362.72266 386.00781 351.79252 386.00781 338.2168 L 386.00781 271.37891 L 395.31055 271.37891 C 399.56403 271.37891 402.98828 267.9547 402.98828 263.70117 L 402.98828 251.75781 L 395.31055 244.08008 L 361.50195 244.08008 L 340.12305 244.08008 L 316.03711 244.08008 L 200.58594 244.08008 L 195.96289 244.08008 L 171.87695 244.08008 L 162.9375 244.08008 L 150.49805 244.08008 L 116.68945 244.08008 z M 171.87695 252.6582 L 195.96289 252.6582 L 195.96289 272.80469 C 195.96289 276.76716 192.77302 279.95703 188.81055 279.95703 L 179.0293 279.95703 C 175.06679 279.95703 171.87695 276.76716 171.87695 272.80469 L 171.87695 252.6582 z M 316.03711 252.6582 L 340.12305 252.6582 L 340.12305 272.80469 C 340.12305 276.76717 336.93321 279.95703 332.9707 279.95703 L 323.18945 279.95703 C 319.22697 279.95703 316.03711 276.76717 316.03711 272.80469 L 316.03711 252.6582 z " />
    <path
       id="rect1514"
       style="fill:#000000;stroke-width:1.02483;stroke-linecap:round;stroke-linejoin:round;paint-order:stroke fill markers;stop-color:#000000"
       d="m 170.77298,211.16912 c -0.46757,0.35087 -0.56165,1.01063 -0.21078,1.4782 l 52.61304,70.1131 c 0.35087,0.46757 1.01005,0.56089 1.47763,0.21002 l 19.70372,-14.78572 c 0.46758,-0.35087 0.56223,-1.00987 0.21136,-1.47744 l -52.61304,-70.1131 c -0.35087,-0.46758 -1.01063,-0.56165 -1.4782,-0.21078 z m 18.76559,5.96456 1.4199,-1.06549 c 1.58389,-1.18856 3.81624,-0.87092 5.0048,0.71298 l 30.34205,40.43437 c 1.18856,1.5839 0.87015,3.81682 -0.71374,5.00538 l -1.4199,1.06549 c -1.58389,1.18856 -3.81681,0.87016 -5.00537,-0.71374 L 188.82426,222.1383 c -1.18856,-1.5839 -0.86959,-3.81606 0.71431,-5.00462 z" />
    <path
       id="path1622"
       style="fill:#000000;stroke-width:1.65701;stroke-linecap:round;stroke-linejoin:round;paint-order:stroke fill markers;stop-color:#000000"
       d="m 166.83336,157.50698 10.74563,14.31982 c 3.37229,4.49397 2.47,10.82634 -2.02397,14.19862 l -10.55649,7.92162 c -4.49397,3.37229 -10.82615,2.46868 -14.19843,-2.02529 l -10.7057,-14.26662 a 29.193181,29.193181 0 0 0 4.35459,26.55106 29.193181,29.193181 0 0 0 40.8719,5.82811 29.193181,29.193181 0 0 0 5.82811,-40.87191 29.193181,29.193181 0 0 0 -24.31564,-11.65541 z" />
    <rect
       style="fill:#000000;fill-opacity:1;stroke-width:0.165764;stop-color:#000000"
       id="rect1514-7"
       width="99.430038"
       height="43.570465"
       x="263.74991"
       y="74.613205"
       ry="13.429362"
       transform="rotate(16.398873)" />
    <rect
       style="fill:#000000;fill-opacity:1;stroke-width:0.165764;stop-color:#000000"
       id="rect1516"
       width="14.52349"
       height="123.72878"
       x="306.20319"
       y="106.17403"
       ry="7.261745"
       rx="7.261745"
       transform="rotate(16.398873)" />
    <rect
       style="fill:#000000;fill-opacity:1;stroke-width:0.165765;stop-color:#000000"
       id="rect1516-90"
       width="25.153061"
       height="65.77729"
       x="300.8884"
       y="164.12553"
       ry="7.261745"
       rx="7.261745"
       transform="rotate(16.398873)" />
    <rect
       style="fill:#000000;fill-opacity:1;stroke-width:0.165764;stop-color:#000000"
       id="rect1516-9"
       width="14.52349"
       height="16.79965"
       x="306.20319"
       y="66.213379"
       ry="4.1999121"
       rx="4.1999121"
       transform="rotate(16.398873)" />
    <path
       id="rect1516-94"
       style="stroke-width:8.07497;stroke-linecap:round;stop-color:#000000"
       d="m 306.87312,229.02329 13.54157,11.01404 -53.10343,65.2897 c -4.85001,5.96299 -18.2869,-5.17974 -13.54157,-11.01406 z"
       sodipodi:nodetypes="ccccc" />
    <path
       style="fill:none;stroke:#000000;stroke-width:8.07497;stroke-linecap:round;stroke-linejoin:round;stroke-opacity:1;stop-color:#000000"
       d="m 313.6439,234.5303 28.87253,-35.49825 20.32157,-1.47132"
       id="path3956" />
    <circle
       style="fill:#000000;fill-opacity:1;stroke:none;stroke-width:8.07497;stroke-linecap:round;stroke-linejoin:round;stroke-opacity:1;stop-color:#000000"
       id="path4788"
       cx="416.22974"
       cy="-85.765816"
       r="6.0469718"
       transform="rotate(39.123208)" />
    <path
       style="fill:#000000;fill-opacity:1;stroke:none;stroke-width:1.54111;stroke-linecap:round;stroke-linejoin:round;stroke-dasharray:none;stroke-opacity:1;paint-order:stroke fill markers;stop-color:#000000"
       d="m 379.0605,201.79444 16.61429,-6.54824 -17.21305,-5.01942"
       id="path4796"
       sodipodi:nodetypes="ccc" />
  </g>
</svg>
