<?xml version="1.0" encoding="UTF-8" standalone="no"?>
<!-- Created with Inkscape (http://www.inkscape.org/) -->

<svg
   width="512"
   height="512"
   viewBox="0 0 512 512"
   version="1.1"
   id="svg5"
   inkscape:version="1.2.1 (9c6d41e410, 2022-07-14)"
   sodipodi:docname="Wire Cutter.svg"
   inkscape:export-filename="Wire Cutter.png"
   inkscape:export-xdpi="96"
   inkscape:export-ydpi="96"
   xmlns:inkscape="http://www.inkscape.org/namespaces/inkscape"
   xmlns:sodipodi="http://sodipodi.sourceforge.net/DTD/sodipodi-0.dtd"
   xmlns="http://www.w3.org/2000/svg"
   xmlns:svg="http://www.w3.org/2000/svg">
  <sodipodi:namedview
     id="namedview7"
     pagecolor="#ffffff"
     bordercolor="#999999"
     borderopacity="1"
     inkscape:showpageshadow="0"
     inkscape:pageopacity="0"
     inkscape:pagecheckerboard="0"
     inkscape:deskcolor="#d1d1d1"
     inkscape:document-units="px"
     showgrid="false"
     inkscape:zoom="0.70313973"
     inkscape:cx="-95.286892"
     inkscape:cy="302.92699"
     inkscape:window-width="1920"
     inkscape:window-height="1009"
     inkscape:window-x="-8"
     inkscape:window-y="-8"
     inkscape:window-maximized="1"
     inkscape:current-layer="layer1" />
  <defs
     id="defs2" />
  <g
     inkscape:label="Laag 1"
     inkscape:groupmode="layer"
     id="layer1">
    <path
       id="path9904"
       style="color:#000000;fill:#000000;stroke-linecap:round;stroke-linejoin:round;paint-order:stroke fill markers"
       d="M 203.82617 188.25977 C 146.8772 250.4205 125.64548 309.20939 120.10938 353.74414 C 114.14351 401.73599 126.85156 435.11328 126.85156 435.11328 A 22.4244 22.4244 0 0 0 155.94727 447.73047 A 22.4244 22.4244 0 0 0 168.56445 418.63672 C 168.56445 418.63672 159.83347 397.74195 164.61523 359.27539 C 169.02418 323.80803 185.35547 275.04251 235.89258 219.63281 A 56.321541 56.321541 0 0 1 203.82617 188.25977 z " />
    <path
       id="path1516-7"
       style="color:#000000;fill:#000000;stroke-linecap:round;stroke-linejoin:round;paint-order:stroke fill markers"
       d="M 308.17188 188.25977 A 56.321541 56.321541 0 0 1 276.10742 219.63281 C 326.64453 275.04251 342.97582 323.80803 347.38477 359.27539 C 352.16653 397.74195 343.43555 418.63672 343.43555 418.63672 A 22.4244 22.4244 0 0 0 356.05273 447.73047 A 22.4244 22.4244 0 0 0 385.14844 435.11328 C 385.14844 435.11328 397.85649 401.73599 391.89062 353.74414 C 386.35449 309.20916 365.12152 250.42086 308.17188 188.25977 z " />
    <path
       id="path7562-4"
       style="fill:#000000;fill-opacity:1;stroke:none;stroke-width:29.8992;stroke-linecap:round;stroke-linejoin:round;stroke-dasharray:none;stroke-opacity:1;paint-order:stroke fill markers;stop-color:#000000"
       d="M 311.58984 62.701172 L 273.20117 113.53711 A 56.321541 56.321541 0 0 1 303.98047 137.68945 C 316.65624 116.22563 333.96638 78.699996 311.58984 62.701172 z " />
    <circle
       style="fill:none;fill-opacity:1;stroke:#000000;stroke-width:29.8992;stroke-linecap:round;stroke-linejoin:round;stroke-dasharray:none;stroke-opacity:1;paint-order:stroke fill markers;stop-color:#000000"
       id="path4374-8"
       cx="256"
       cy="167.1617"
       r="30.848152" />
    <path
       style="fill:#000000;fill-opacity:1;stroke:none;stroke-width:29.8992;stroke-linecap:round;stroke-linejoin:round;stroke-dasharray:none;stroke-opacity:1;paint-order:stroke fill markers;stop-color:#000000"
       d="m 218.28849,153.50047 c 0,0 -50.10009,-67.7615 -17.87752,-90.800044 L 256,136.31354"
       id="path7562"
       sodipodi:nodetypes="ccc" />
  </g>
</svg>
