<?xml version="1.0" encoding="UTF-8" standalone="no"?>
<!-- Created with Inkscape (http://www.inkscape.org/) -->

<svg
   width="512"
   height="512"
   viewBox="0 0 512 512"
   version="1.1"
   id="svg5"
   inkscape:version="1.2.1 (9c6d41e410, 2022-07-14)"
   sodipodi:docname="Wrench.svg"
   inkscape:export-filename="Wrench.png"
   inkscape:export-xdpi="96"
   inkscape:export-ydpi="96"
   xmlns:inkscape="http://www.inkscape.org/namespaces/inkscape"
   xmlns:sodipodi="http://sodipodi.sourceforge.net/DTD/sodipodi-0.dtd"
   xmlns="http://www.w3.org/2000/svg"
   xmlns:svg="http://www.w3.org/2000/svg">
  <sodipodi:namedview
     id="namedview7"
     pagecolor="#ffffff"
     bordercolor="#999999"
     borderopacity="1"
     inkscape:showpageshadow="0"
     inkscape:pageopacity="0"
     inkscape:pagecheckerboard="0"
     inkscape:deskcolor="#d1d1d1"
     inkscape:document-units="px"
     showgrid="false"
     inkscape:zoom="0.82324124"
     inkscape:cx="-15.79124"
     inkscape:cy="272.09521"
     inkscape:window-width="1920"
     inkscape:window-height="1009"
     inkscape:window-x="-8"
     inkscape:window-y="-8"
     inkscape:window-maximized="1"
     inkscape:current-layer="layer1" />
  <defs
     id="defs2" />
  <g
     inkscape:label="Laag 1"
     inkscape:groupmode="layer"
     id="layer1">
    <path
       id="rect1514"
       style="fill:#000000;stroke-width:2.10625;stroke-linecap:round;stroke-linejoin:round;paint-order:stroke fill markers;stop-color:#000000"
       d="M 230.68555 173.61719 C 229.48412 173.61719 228.51562 174.58568 228.51562 175.78711 L 228.51562 355.94336 C 228.51563 357.14479 229.48412 358.11133 230.68555 358.11133 L 281.31445 358.11133 C 282.51588 358.11133 283.48438 357.14479 283.48438 355.94336 L 283.48438 175.78711 C 283.48438 174.58568 282.51588 173.61719 281.31445 173.61719 L 230.68555 173.61719 z M 254.17578 206.57031 L 257.82422 206.57031 C 261.89405 206.57031 265.17188 209.84618 265.17188 213.91602 L 265.17188 317.8125 C 265.17188 321.88234 261.89405 325.16016 257.82422 325.16016 L 254.17578 325.16016 C 250.10595 325.16016 246.82812 321.88234 246.82812 317.8125 L 246.82812 213.91602 C 246.82812 209.84618 250.10595 206.57031 254.17578 206.57031 z " />
    <path
       id="path1622"
       style="fill:#000000;stroke-width:3.4055;stroke-linecap:round;stroke-linejoin:round;paint-order:stroke fill markers;stop-color:#000000"
       d="M 290.4043 80.544922 L 290.4043 117.33984 C 290.4043 128.88714 281.1098 138.18359 269.5625 138.18359 L 242.4375 138.18359 C 230.8902 138.18359 221.5957 128.88714 221.5957 117.33984 L 221.5957 80.681641 A 59.998123 59.998123 0 0 0 196.00195 129.69922 A 59.998123 59.998123 0 0 0 256 189.69727 A 59.998123 59.998123 0 0 0 315.99805 129.69922 A 59.998123 59.998123 0 0 0 290.4043 80.544922 z " />
    <path
       id="path1622-3"
       style="fill:#000000;stroke-width:3.19233;stroke-linecap:round;stroke-linejoin:round;paint-order:stroke fill markers;stop-color:#000000"
       d="M 256 337.74414 A 56.242508 56.242508 0 0 0 199.75781 393.98633 A 56.242508 56.242508 0 0 0 256 450.22852 A 56.242508 56.242508 0 0 0 312.24219 393.98633 A 56.242508 56.242508 0 0 0 256 337.74414 z M 269.78906 369.91797 C 273.27556 375.91259 280.25012 387.90088 283.73828 393.89453 C 280.29004 399.91124 273.39579 411.94523 269.94922 417.96289 C 263.01447 417.98498 249.14568 418.03068 242.21094 418.05469 C 238.72444 412.06007 231.74988 400.07178 228.26172 394.07812 C 231.70996 388.06142 238.60421 376.02743 242.05078 370.00977 C 248.98553 369.98768 262.85432 369.94198 269.78906 369.91797 z " />
  </g>
</svg>
