<?xml version="1.0" encoding="UTF-8" standalone="no"?>
<!-- Created with Inkscape (http://www.inkscape.org/) -->

<svg
   width="512"
   height="512"
   viewBox="0 0 512 512"
   version="1.1"
   id="svg5"
   xml:space="preserve"
   inkscape:version="1.2.1 (9c6d41e410, 2022-07-14)"
   sodipodi:docname="Seaport mechanic logo.svg"
   inkscape:export-filename="..\Users\Seppe\OneDrive - KOGEKA\Bureaublad\All Components logo\Right Elephant.svg"
   inkscape:export-xdpi="192"
   inkscape:export-ydpi="192"
   xmlns:inkscape="http://www.inkscape.org/namespaces/inkscape"
   xmlns:sodipodi="http://sodipodi.sourceforge.net/DTD/sodipodi-0.dtd"
   xmlns="http://www.w3.org/2000/svg"
   xmlns:svg="http://www.w3.org/2000/svg"><sodipodi:namedview
     id="namedview7"
     pagecolor="#505050"
     bordercolor="#eeeeee"
     borderopacity="1"
     inkscape:showpageshadow="0"
     inkscape:pageopacity="0"
     inkscape:pagecheckerboard="0"
     inkscape:deskcolor="#505050"
     inkscape:document-units="px"
     showgrid="false"
     inkscape:zoom="1.1449053"
     inkscape:cx="77.29897"
     inkscape:cy="225.34615"
     inkscape:window-width="1920"
     inkscape:window-height="1009"
     inkscape:window-x="-8"
     inkscape:window-y="-8"
     inkscape:window-maximized="1"
     inkscape:current-layer="svg5" /><defs
     id="defs2" /><g
     inkscape:label="Laag 1"
     id="layer1-3"
     transform="matrix(0.27006091,0.27005202,-0.27006091,0.27005202,89.851581,0.25724203)"
     style="display:inline;fill:#000000;fill-opacity:1;stroke:none;stroke-width:13.0919;stroke-dasharray:none;stroke-opacity:1"><path
       id="rect1514"
       style="fill:#000000;fill-opacity:1;stroke:#ffffff;stroke-width:13.0919;stroke-dasharray:none;stroke-opacity:1;stop-color:#000000"
       d="m 100.15131,67.55538 c -3.75474,6.503398 -5.0192,14.44541 -2.91304,22.305728 l 9.46306,35.312902 c 4.21233,15.72063 20.25898,24.98517 35.97961,20.77284 l 61.32939,-16.43316 26.16338,97.64677 c -6.00746,3.52969 -9.16715,10.70997 -7.27207,17.78252 l 29.01912,108.30084 c 2.27776,8.50072 10.95649,13.51139 19.45722,11.23363 l 22.45838,-6.01771 c 8.50071,-2.27776 13.51138,-10.9565 11.23362,-19.45721 L 276.05086,230.70169 c -1.89509,-7.07255 -8.22159,-11.71101 -15.18906,-11.76408 l -26.16524,-97.64627 61.32941,-16.43317 c 15.72063,-4.21233 24.98517,-20.258982 20.77284,-35.979614 L 307.33761,33.56516 C 303.12528,17.844526 287.07863,8.5799832 271.358,12.792315 l -61.32941,16.433164 -2.3776,-8.87333 c -1.31737,-4.916486 -6.33619,-7.814104 -11.25267,-6.496736 l -12.93867,3.466905 c -4.91649,1.317371 -7.81411,6.336191 -6.49674,11.252678 l 2.3776,8.873329 -61.3294,16.433164 c -7.86032,2.106166 -14.10506,7.170486 -17.8598,13.673891 z" /></g></svg>
