<?xml version="1.0" encoding="UTF-8" standalone="no"?>
<!-- Created with Inkscape (http://www.inkscape.org/) -->

<svg
   width="512"
   height="512"
   viewBox="0 0 512 512"
   version="1.1"
   id="svg5"
   xml:space="preserve"
   inkscape:version="1.2.1 (9c6d41e410, 2022-07-14)"
   sodipodi:docname="Seaport mechanic logo.svg"
   inkscape:export-filename="..\Users\Seppe\OneDrive - KOGEKA\Bureaublad\All Components logo\Left Elephant.svg"
   inkscape:export-xdpi="192"
   inkscape:export-ydpi="192"
   xmlns:inkscape="http://www.inkscape.org/namespaces/inkscape"
   xmlns:sodipodi="http://sodipodi.sourceforge.net/DTD/sodipodi-0.dtd"
   xmlns="http://www.w3.org/2000/svg"
   xmlns:svg="http://www.w3.org/2000/svg"><sodipodi:namedview
     id="namedview7"
     pagecolor="#505050"
     bordercolor="#eeeeee"
     borderopacity="1"
     inkscape:showpageshadow="0"
     inkscape:pageopacity="0"
     inkscape:pagecheckerboard="0"
     inkscape:deskcolor="#505050"
     inkscape:document-units="px"
     showgrid="false"
     inkscape:zoom="1.1449053"
     inkscape:cx="77.29897"
     inkscape:cy="225.34615"
     inkscape:window-width="1920"
     inkscape:window-height="1009"
     inkscape:window-x="-8"
     inkscape:window-y="-8"
     inkscape:window-maximized="1"
     inkscape:current-layer="svg5" /><defs
     id="defs2" /><path
     id="path28442"
     style="display:inline;fill:#000000;stroke:#ffffff;stroke-width:5;stroke-dasharray:none;stroke-opacity:1"
     d="m 50.126147,132.00354 c -14.956265,-0.23167 -22.823427,2.43699 -30.467729,9.14856 -7.884899,6.92281 -13.3869871,24.99339 -12.0353701,39.52234 2.1055915,22.63369 12.2658451,35.41822 37.5341941,47.2258 8.86245,4.14131 16.114803,8.36057 16.114803,9.37613 l 9.27023,5.21529 10.922108,5.11097 c 6.240613,2.92025 15.290204,5.56678 21.108367,6.17489 8.73838,0.91331 11.19348,1.9949 17.29823,7.6219 6.53788,6.02621 7.04136,7.0944 6.2263,13.17096 -1.70489,12.71052 2.01868,17.5012 14.77396,19.01397 3.09392,0.36694 5.42663,2.71679 8.66714,8.72563 4.28094,7.93814 4.43687,9.23067 4.50805,37.25987 0.0408,16.04661 1.27684,38.48046 2.76324,50.15204 1.47922,11.61534 2.70346,27.62117 2.71772,35.56633 0.0135,7.94516 0.71141,15.52794 1.54946,16.852 3.10864,4.91135 24.69663,6.02437 30.08654,1.5513 2.54266,-2.11016 2.44884,-6.81656 -0.41155,-20.89336 -0.97466,-4.79646 -0.58888,-4.58381 6.87492,3.80999 9.94916,11.18896 13.63484,11.4528 23.65729,1.69355 10.32414,-10.05304 11.02316,-13.67462 3.93719,-20.41166 -8.00932,-7.61493 -14.91241,-17.07814 -14.91241,-20.442 0,-3.48114 8.56025,-20.7007 16.37463,-32.93783 5.08742,-7.96674 6.28879,-8.91257 10.35505,-8.14343 1.27499,0.24117 4.48245,0.57995 8.38076,0.93686 3.31572,-3.50988 6.18078,-7.40372 6.18078,-11.52862 V 231.08061 c 0,-3.91002 -2.45601,-7.62217 -5.4108,-10.98811 -18.72517,3.2544 -40.72521,2.41702 -43.3755,-2.14491 -4.04836,-6.96842 -11.70004,-14.46504 -20.07285,-19.66635 -4.86457,-3.0219 -10.75157,-7.6869 -13.08226,-10.36609 -4.21313,-4.84318 -23.667,-13.22406 -30.6972,-13.22406 -1.89732,0 -8.65929,2.28818 -15.0262,5.08254 -6.36692,2.79436 -13.64581,5.07873 -16.17359,5.07873 -2.52777,0 -11.544828,2.41293 -20.038723,5.36131 -12.971292,4.50257 -18.056511,5.38315 -31.764955,5.50354 -14.061878,0.12346 -16.841809,-0.32472 -20.080443,-3.24295 -10.049341,-9.05518 -13.408558,-28.23459 -6.814227,-38.90411 1.847082,-2.98852 6.373762,-6.7945 10.059187,-8.45633 6.742052,-3.04017 13.062856,-3.03381 34.071134,0.0284 9.04268,1.31803 13.297945,-1.7204 10.288666,-7.34312 -1.38305,-2.58414 -4.57092,-3.52095 -15.782909,-4.63875 -6.815102,-0.67946 -12.587811,-1.07963 -17.573233,-1.15685 z" /></svg>
