<?xml version="1.0" encoding="UTF-8" standalone="no"?>
<!-- Created with Inkscape (http://www.inkscape.org/) -->

<svg
   width="512"
   height="512"
   viewBox="0 0 512 512"
   version="1.1"
   id="svg5"
   xml:space="preserve"
   inkscape:version="1.2.1 (9c6d41e410, 2022-07-14)"
   sodipodi:docname="Seaport mechanic logo.svg"
   inkscape:export-filename="..\Users\Seppe\OneDrive - KOGEKA\Bureaublad\All Components logo\Left Elephant.svg"
   inkscape:export-xdpi="192"
   inkscape:export-ydpi="192"
   xmlns:inkscape="http://www.inkscape.org/namespaces/inkscape"
   xmlns:sodipodi="http://sodipodi.sourceforge.net/DTD/sodipodi-0.dtd"
   xmlns="http://www.w3.org/2000/svg"
   xmlns:svg="http://www.w3.org/2000/svg"><sodipodi:namedview
     id="namedview7"
     pagecolor="#505050"
     bordercolor="#eeeeee"
     borderopacity="1"
     inkscape:showpageshadow="0"
     inkscape:pageopacity="0"
     inkscape:pagecheckerboard="0"
     inkscape:deskcolor="#505050"
     inkscape:document-units="px"
     showgrid="false"
     inkscape:zoom="1.1449053"
     inkscape:cx="77.29897"
     inkscape:cy="225.34615"
     inkscape:window-width="1920"
     inkscape:window-height="1009"
     inkscape:window-x="-8"
     inkscape:window-y="-8"
     inkscape:window-maximized="1"
     inkscape:current-layer="svg5" /><defs
     id="defs2" /><path
     id="path28442-7"
     style="display:inline;fill:#000000;stroke:#ffffff;stroke-width:5;stroke-dasharray:none;stroke-opacity:1"
     d="m 461.87386,132.00354 c -4.98544,0.0772 -10.75815,0.4774 -17.57324,1.15685 -11.21199,1.11781 -14.39986,2.05461 -15.7829,4.63875 -3.00927,5.62272 1.24598,8.66115 10.28866,7.34312 21.00828,-3.06225 27.32908,-3.06861 34.07113,-0.0284 3.68542,1.66183 8.21212,5.46781 10.05919,8.45633 6.59434,10.66952 3.23512,29.84893 -6.81422,38.90411 -3.23865,2.91823 -6.01858,3.36641 -20.08045,3.24295 -13.70845,-0.12039 -18.79367,-1.00097 -31.76495,-5.50354 -8.4939,-2.94838 -17.51096,-5.36131 -20.03872,-5.36131 -2.52779,0 -9.80668,-2.28437 -16.1736,-5.07873 -6.36691,-2.79436 -13.12888,-5.08254 -15.0262,-5.08254 -7.0302,0 -26.48406,8.38089 -30.6972,13.22406 -2.33068,2.67919 -8.21769,7.34419 -13.08226,10.36609 -8.3728,5.20131 -16.02448,12.69793 -20.07285,19.66635 -2.71618,4.67534 -25.73926,5.42354 -44.74669,1.87751 -2.03802,3.79635 -4.03961,7.73294 -4.03961,11.25551 v 104.69441 c 0,4.15291 2.48175,8.07053 5.32735,11.59879 4.26756,-0.38241 7.87483,-0.74991 9.23419,-1.00703 4.06626,-0.76914 5.26763,0.17669 10.35505,8.14343 7.81438,12.23713 16.37463,29.45669 16.37463,32.93783 0,3.36386 -6.90309,12.82707 -14.9124,20.442 -7.08598,6.73704 -6.38695,10.35862 3.93718,20.41166 10.02245,9.75925 13.70813,9.49541 23.6573,-1.69355 7.46379,-8.3938 7.84957,-8.60645 6.87491,-3.80999 -2.86039,14.0768 -2.95421,18.7832 -0.41155,20.89336 5.38991,4.47307 26.97792,3.36005 30.08654,-1.5513 0.83806,-1.32406 1.53596,-8.90684 1.54946,-16.852 0.0143,-7.94516 1.2385,-23.95099 2.71772,-35.56633 1.4864,-11.67158 2.72246,-34.10543 2.76324,-50.15204 0.0712,-28.0292 0.22712,-29.32173 4.50805,-37.25987 3.24051,-6.00884 5.57322,-8.35869 8.66714,-8.72563 12.75528,-1.51277 16.47885,-6.30345 14.77396,-19.01397 -0.81506,-6.07656 -0.31158,-7.14475 6.2263,-13.17096 6.10475,-5.627 8.55985,-6.70859 17.29824,-7.6219 5.81815,-0.60811 14.86774,-3.25464 21.10836,-6.17489 l 10.92211,-5.11097 9.27022,-5.21529 c 0,-1.01556 7.25236,-5.23482 16.11481,-9.37613 25.26835,-11.80758 35.4286,-24.59211 37.53419,-47.2258 1.35163,-14.52895 -4.15047,-32.59953 -12.03537,-39.52234 -7.6443,-6.71158 -15.51147,-9.38023 -30.46772,-9.14856 z" /></svg>
