<?xml version="1.0" encoding="UTF-8" standalone="no"?>
<!-- Created with Inkscape (http://www.inkscape.org/) -->

<svg
   width="512"
   height="512"
   viewBox="0 0 512 512"
   version="1.1"
   id="svg5"
   xml:space="preserve"
   inkscape:version="1.2.1 (9c6d41e410, 2022-07-14)"
   sodipodi:docname="Seaport mechanic logo.svg"
   inkscape:export-filename="..\Users\Seppe\OneDrive - KOGEKA\Bureaublad\All Components logo\Hammer.svg"
   inkscape:export-xdpi="192"
   inkscape:export-ydpi="192"
   xmlns:inkscape="http://www.inkscape.org/namespaces/inkscape"
   xmlns:sodipodi="http://sodipodi.sourceforge.net/DTD/sodipodi-0.dtd"
   xmlns="http://www.w3.org/2000/svg"
   xmlns:svg="http://www.w3.org/2000/svg"><sodipodi:namedview
     id="namedview7"
     pagecolor="#505050"
     bordercolor="#eeeeee"
     borderopacity="1"
     inkscape:showpageshadow="0"
     inkscape:pageopacity="0"
     inkscape:pagecheckerboard="0"
     inkscape:deskcolor="#505050"
     inkscape:document-units="px"
     showgrid="false"
     inkscape:zoom="1.1449053"
     inkscape:cx="77.29897"
     inkscape:cy="225.34615"
     inkscape:window-width="1920"
     inkscape:window-height="1009"
     inkscape:window-x="-8"
     inkscape:window-y="-8"
     inkscape:window-maximized="1"
     inkscape:current-layer="svg5" /><defs
     id="defs2" /><g
     inkscape:label="Laag 1"
     id="layer1-7"
     transform="matrix(0.37803639,-0.1012912,0.10129454,0.37802394,299.79226,48.510251)"
     style="display:inline;fill:#000000;fill-opacity:1;stroke:#ffffff;stroke-width:20.4413;stroke-dasharray:none;stroke-opacity:1"><path
       id="rect1514-7"
       style="fill:#000000;fill-opacity:1;stroke:#ffffff;stroke-width:20.4413;stroke-linecap:round;stroke-linejoin:round;stroke-dasharray:none;stroke-opacity:1;paint-order:stroke fill markers;stop-color:#000000"
       d="m 209.34097,74.13192 a 57.564255,57.564255 0 0 0 -7.21163,-3.198736 l 9.13748,34.101536 c 2.86743,10.70136 -3.43883,21.6241 -14.14019,24.49152 l -25.13744,6.73556 c -10.70135,2.86742 -21.62309,-3.44058 -24.49051,-14.14193 l -9.10284,-33.972256 a 57.564255,57.564255 0 0 0 -11.54739,51.782606 57.564255,57.564255 0 0 0 43.33751,41.20796 l 40.27699,150.31575 a 53.960989,53.960989 0 0 0 -14.50603,52.46926 53.960989,53.960989 0 0 0 66.08789,38.15587 53.960989,53.960989 0 0 0 38.15586,-66.08789 53.960989,53.960989 0 0 0 -38.79547,-38.18569 L 221.16009,167.61237 a 57.564255,57.564255 0 0 0 16.8948,-57.48129 57.564255,57.564255 0 0 0 -28.71392,-35.99916 z m -0.75773,122.38346 c 1.56057,0.90062 2.7756,2.39855 3.2809,4.28438 l 25.79986,96.28638 c 1.01062,3.77168 -1.21287,7.62287 -4.98455,8.63349 l -3.38045,0.90579 c -3.77168,1.01062 -7.62463,-1.21387 -8.63525,-4.98556 l -25.79911,-96.28361 c -1.01063,-3.77169 1.21286,-7.62289 4.98455,-8.63351 l 3.38207,-0.90523 c 1.88584,-0.50531 3.79127,-0.20321 5.35186,0.69741 z m 46.29789,147.71191 c 4.71967,4.6897 14.16029,14.06675 18.88125,18.75513 -1.70156,6.4322 -5.10219,19.29859 -6.80197,25.73126 -6.42123,1.74251 -19.2622,5.22734 -25.68296,6.97159 -4.71966,-4.68969 -14.16029,-14.06673 -18.88125,-18.75512 1.70156,-6.43219 5.10119,-19.29686 6.80096,-25.72952 6.42124,-1.74251 19.26322,-5.22906 25.68395,-6.97341 z" /></g></svg>
