# Blender 4.0.1
# www.blender.org
mtllib Flagground.mtl
o Cube
v -1.000000 1.984240 4.007537
v -1.000000 3.012945 4.007537
v -1.000000 1.984240 -4.007537
v -1.000000 3.012945 -4.007537
v 1.000000 1.984240 4.007537
v 1.000000 3.012945 4.007537
v 1.000000 1.984240 -4.007537
v 1.000000 3.012945 -4.007537
v -1.000000 1.984240 -2.984596
v -1.000000 1.984240 2.984596
v -1.000000 3.012945 2.984596
v -1.000000 3.012945 -2.984596
v 1.000000 1.984240 2.984596
v 1.000000 1.984240 -2.984596
v 1.000000 3.012945 -2.984596
v 1.000000 3.012945 2.984596
v -1.000000 -2.007734 2.984596
v -1.000000 -2.007734 4.007537
v 1.000000 -2.007734 -4.007537
v -1.000000 -2.007734 -4.007537
v 1.000000 -2.007734 -2.984596
v 1.000000 -2.007734 4.007537
v -1.000000 -2.007734 -2.984596
v 1.000000 -2.007734 2.984596
v -1.000000 -0.998400 2.984596
v -1.000000 -0.998400 4.007537
v 1.000000 -0.998400 4.007537
v 1.000000 -0.998400 2.984596
v 1.000000 -0.994619 -4.007537
v -1.000000 -0.994619 -4.007537
v -1.000000 -0.994619 -2.984596
v 1.000000 -0.994619 -2.984596
vn -1.0000 -0.0000 -0.0000
vn -0.0000 -0.0000 -1.0000
vn 1.0000 -0.0000 -0.0000
vn -0.0000 -0.0000 1.0000
vn -0.0000 1.0000 -0.0000
vn -0.0000 -1.0000 -0.0000
vn -0.0000 1.0000 0.0006
vt 0.375000 0.166667
vt 0.625000 0.166667
vt 0.625000 0.250000
vt 0.375000 0.250000
vt 0.625000 0.500000
vt 0.375000 0.500000
vt 0.375000 0.666667
vt 0.625000 0.666667
vt 0.625000 0.750000
vt 0.375000 0.750000
vt 0.625000 1.000000
vt 0.375000 1.000000
vt 0.375000 0.583333
vt 0.125000 0.583333
vt 0.375000 0.583333
vt 0.875000 0.666667
vt 0.875000 0.750000
vt 0.875000 0.500000
vt 0.875000 0.583333
vt 0.625000 0.583333
vt 0.125000 0.666667
vt 0.375000 0.000000
vt 0.625000 0.000000
vt 0.625000 0.083333
vt 0.375000 0.083333
vt 0.125000 0.750000
vt 0.125000 0.500000
s 0
f 9/1/1 12/2/1 4/3/1 3/4/1
f 3/4/2 4/3/2 8/5/2 7/6/2
f 13/7/3 16/8/3 6/9/3 5/10/3
f 5/10/4 6/9/4 2/11/4 1/12/4
f 32/13/4 31/14/4 23/14/4 21/15/4
f 16/8/5 11/16/5 2/17/5 6/9/5
f 8/5/5 4/18/5 12/19/5 15/20/5
f 15/20/5 12/19/5 11/16/5 16/8/5
f 30/4/2 29/6/2 19/6/2 20/4/2
f 9/14/6 14/15/6 13/7/6 10/21/6
f 7/6/3 8/5/3 15/20/3 14/15/3
f 14/15/3 15/20/3 16/8/3 13/7/3
f 1/22/1 2/23/1 11/24/1 10/25/1
f 10/25/1 11/24/1 12/2/1 9/1/1
f 17/21/6 24/7/6 22/10/6 18/26/6
f 20/27/6 19/6/6 21/15/6 23/14/6
f 26/22/1 25/25/1 17/25/1 18/22/1
f 29/6/3 32/13/3 21/15/3 19/6/3
f 28/7/3 27/10/3 22/10/3 24/7/3
f 24/7/6 17/21/6 23/21/6 21/7/6
f 31/1/1 30/4/1 20/4/1 23/1/1
f 27/10/4 26/12/4 18/12/4 22/10/4
f 5/10/4 1/12/4 26/12/4 27/10/4
f 10/21/2 13/7/2 28/7/2 25/21/2
f 13/7/3 5/10/3 27/10/3 28/7/3
f 1/22/1 10/25/1 25/25/1 26/22/1
f 9/1/1 3/4/1 30/4/1 31/1/1
f 7/6/3 14/15/3 32/13/3 29/6/3
f 3/4/2 7/6/2 29/6/2 30/4/2
f 14/15/4 9/14/4 31/14/4 32/13/4
f 17/25/1 25/25/1 31/25/1 23/25/1
f 25/21/7 28/7/7 32/7/7 31/21/7
f 28/7/3 24/7/3 21/7/3 32/7/3
