<?xml version="1.0" encoding="UTF-8"?>
<svg id="Laag_2" data-name="Laag 2" xmlns="http://www.w3.org/2000/svg" viewBox="0 0 172.68 224.4">
  <defs>
    <style>
      .cls-1 {
        fill: none;
        stroke: #000;
        stroke-miterlimit: 10;
      }
    </style>
  </defs>
  <g id="Laag_1-2" data-name="Laag 1">
    <g>
      <path class="cls-1" d="m8.31,214.79s2,5,12,8c28.48,8.54,66-35,66-35l11-13s-2-3,7.11-10.75,26.89-.25,26.89-.25l6,2,2-3c-1-14,6-23,6-23l-20.39-26.5s-34.07,10.42-52.02,10.56c-.91,0-1.77-.01-2.59-.06-17-1-20,6-20,6l-38,37C-1.59,184.17-.73,197.52,2.46,205.68c2.31,5.92,5.85,9.11,5.85,9.11"/>
      <path class="cls-1" d="m72.91,123.85c-2.41,6.06-13.59,15.94-13.59,15.94l-46,45s-11.87,14.81-10.43,21.9"/>
      <path class="cls-1" d="m72.91,175.29s14.41,8.5,21.41-1.5,2.59-18-10.7-21-14.96-8.56-24.13,1.72,13.43,20.78,13.43,20.78Z"/>
      <path class="cls-1" d="m72.91,175.29s-6.59-1.5-10.59-3.5-7-5-8-11,2.98-9.67,2.98-9.67c0,0,7.02-9.33,18.02-3.33l20,9s9.2,4.75.6,14.37"/>
      <path class="cls-1" d="m144.44,138.66l14.87-13.86c-5,8-6,22-6,22l.28,10.44"/>
      <path class="cls-1" d="m139.22,160.54l6.09,1.76s12,3.5,9-3.5-5-6-5-14,10-20.94,10-20.94c0,0-3,4.94,8.67-10.56s-4.67-36.87-4.67-36.87c0,0-33.19-51.26-70-70.63-19-10-31-4-40,3,0,0-13,8-13,20s10.19,20,32.59,46,40.43,41.77,40.43,41.77"/>
      <path class="cls-1" d="m40.31,28.79c16,6,50.17,44.04,50.17,44.04l34.44,40.46"/>
      <path class="cls-1" d="m103.31,112.79c-9.81,2.8-10,4-10,4,0,0-.14.45.26.89.67.74,2.86,1.49,9.74.19,11-2.08,7-7.08,0-5.08Z"/>
      <line class="cls-1" x1="94.2" y1="121.08" x2="94.2" y2="118.12"/>
    </g>
  </g>
</svg>