<?xml version="1.0" encoding="UTF-8"?>
<svg id="Laag_2" data-name="Laag 2" xmlns="http://www.w3.org/2000/svg" viewBox="0 0 160.02 228.73">
  <defs>
    <style>
      .cls-1 {
        fill: none;
        stroke: #000;
        stroke-miterlimit: 10;
      }
    </style>
  </defs>
  <g id="Laag_1-2" data-name="Laag 1">
    <g>
      <path class="cls-1" d="m115.01,89.67c17-2,31-10,31-10,0,0,13-4,13.5-31.17s-31.5-40.83-31.5-40.83c0,0-35-13-81-4S.51,47.17.51,47.17c0,0-.63,13.98,7.6,25.92,5.78,8.38,15.93,15.75,33.73,16.58,0,0,4.17-4,10.17,50l7,61s2.99,26,21,27.5,18-30.5,18-30.5l2-54s3-28,15-54Z"/>
      <path class="cls-1" d="m152.22,74.73c.21-15.94-44.21-22.06-76.21-22.06,0,0-64.8,2.84-67.9,20.42"/>
      <path class="cls-1" d="m46.01,89.67s-8-26,31-30c39,1,35,28,35,28,0,0-7,30-14,39s-7.56,8.67-19.28,9.83-18.72-12.83-18.72-12.83c0,0-13-28-14-34Z"/>
      <path class="cls-1" d="m99.5,157.39c7.49-.28,8.51-3.72,8.51-3.72,0,0-1.18-21.94-5.59-24.47"/>
      <ellipse class="cls-1" cx="78.51" cy="121.17" rx="7.5" ry="6.5"/>
      <ellipse class="cls-1" cx="90.51" cy="98.17" rx="7.5" ry="5.5"/>
      <circle class="cls-1" cx="96.01" cy="82.67" r="6"/>
      <ellipse class="cls-1" cx="67.01" cy="74.17" rx="9" ry="7.5"/>
      <path class="cls-1" d="m58.01,76.67c-4,0-5.28,6-5.28,6,0,0-.79,12.03,14.28,12.5,16,.5,14-10.5,14-10.5,0,0,0-7.92-5-8.96"/>
      <path class="cls-1" d="m76.08,77.68c2.07,11.01-8.07,9.99-8.07,9.99,0,0-11.46,1.31-10.73-10.34"/>
      <path class="cls-1" d="m45.33,85.45s-26.32-.78-32.32-12.78c0,0-1-14.89,65.5-15.94,0,0,66.5-1.06,67.5,15.94,0,0-1.77,10.56-33.88,12.78"/>
      <ellipse class="cls-1" cx="66.51" cy="72.67" rx="6.5" ry="5"/>
      <path class="cls-1" d="m90.1,81.67s-4.09,8,4.91,9c9.99,1.11,6.91-9,6.91-9"/>
      <path class="cls-1" d="m83.01,98.17s-2,6.94,7,8.22,8-8.22,8-8.22"/>
    </g>
  </g>
</svg>